<svg xmlns="http://www.w3.org/2000/svg" viewBox="0 0 512 512">
  <rect width="512" height="512" fill="#4caf50" rx="100"/>
  <path fill="#ffffff" d="M256,96c-88.4,0-160,71.6-160,160c0,88.4,71.6,160,160,160c88.4,0,160-71.6,160-160C416,167.6,344.4,96,256,96z M273.6,358.4c-8,3.2-16.8,5.6-25.6,5.6c-48,0-87.2-39.2-87.2-87.2c0-8.8,2.4-17.6,5.6-25.6l93.6,131.2z M316,339.2l-105.6-148c13.6-10.4,30.4-16.8,48.8-16.8c42.4,0,76.8,31.2,82.4,72H280c-4.8,0-8,3.2-8,8v16c0,4.8,3.2,8,8,8h63.2C340.8,300,331.2,322.4,316,339.2z"/>
</svg>
